<svg width="32" height="33" viewBox="0 0 32 33" fill="none" xmlns="http://www.w3.org/2000/svg">
<path d="M19.161 32.8046L5.6598 26.0851H0.195435V8.73337H5.62877L19.161 0.620728V32.8046ZM1.6667 24.6391H6.01153L17.6897 30.4512V3.19659L6.04199 10.1793H1.6667V24.6391Z" fill="black"/>
<path d="M23.2759 23.0344L22.6093 22.408C25.9501 19.2672 25.9501 14.1574 22.6093 11.0172L23.2759 10.3907C26.9845 13.8764 26.9845 19.5482 23.2759 23.0344Z" fill="black"/>
<path d="M25.4897 25.908L24.9081 25.2856C29.1759 20.7166 29.1759 13.2833 24.9081 8.71433L25.4897 8.09192C30.0782 13.004 30.0782 20.9965 25.4897 25.908Z" fill="black"/>
<path d="M26.6667 29.931L26.0575 29.2966C32.5713 22.5155 32.5713 11.4833 26.0575 4.70345L26.6667 4.06897C33.5173 11.1989 33.5173 22.8006 26.6667 29.931Z" fill="black"/>
</svg>
